<svg xmlns="http://www.w3.org/2000/svg" xmlns:xlink="http://www.w3.org/1999/xlink" width="500" zoomAndPan="magnify" viewBox="0 0 375 374.999991" height="500" preserveAspectRatio="xMidYMid meet" version="1.0"><defs><clipPath id="53d5a795dd"><path d="M 78.523438 117.574219 L 296.773438 117.574219 L 296.773438 344.824219 L 78.523438 344.824219 Z M 78.523438 117.574219 " clip-rule="nonzero"/></clipPath><clipPath id="3827914e6b"><path d="M 178.789062 224 L 199 224 L 199 244 L 178.789062 244 Z M 178.789062 224 " clip-rule="nonzero"/></clipPath><clipPath id="d4812364a0"><path d="M 213 17 L 273.289062 17 L 273.289062 146 L 213 146 Z M 213 17 " clip-rule="nonzero"/></clipPath></defs><g clip-path="url(#53d5a795dd)"><path fill="#ff9900" d="M 187.59375 117.667969 C 148.972656 116.105469 114.433594 133.730469 92.707031 161.765625 L 109.347656 161.765625 C 129.476562 140.574219 158.699219 128.046875 190.800781 130.503906 C 241.640625 134.390625 282.050781 176.421875 283.984375 227.253906 C 286.175781 284.832031 240.042969 332.207031 182.820312 332.207031 C 143.425781 332.207031 109.320312 309.746094 92.585938 276.976562 L 78.582031 276.976562 C 96.238281 316.925781 136.253906 344.839844 182.832031 344.839844 C 247.242188 344.839844 299.164062 291.5 296.632812 226.671875 C 294.335938 167.917969 246.46875 120.070312 187.59375 117.667969 Z M 187.59375 117.667969 " fill-opacity="1" fill-rule="nonzero"/></g><g clip-path="url(#3827914e6b)"><path fill="#003399" d="M 181.570312 240.484375 C 179.714844 238.714844 178.789062 236.503906 178.789062 233.859375 C 178.789062 231.21875 179.714844 229.007812 181.570312 227.238281 C 183.421875 225.464844 185.777344 224.566406 188.640625 224.566406 C 191.507812 224.566406 193.734375 225.453125 195.542969 227.238281 C 197.355469 229.007812 198.269531 231.21875 198.269531 233.859375 C 198.269531 236.503906 197.371094 238.714844 195.542969 240.484375 C 193.734375 242.257812 191.4375 243.15625 188.640625 243.15625 C 185.847656 243.15625 183.421875 242.269531 181.570312 240.484375 Z M 181.570312 240.484375 " fill-opacity="1" fill-rule="nonzero"/></g><g clip-path="url(#d4812364a0)"><path fill="#003399" d="M 266.371094 18.496094 C 260.925781 16.527344 254.921875 19.339844 252.953125 24.792969 L 214.453125 131.355469 C 212.484375 136.808594 215.292969 142.820312 220.742188 144.789062 C 226.1875 146.757812 232.191406 143.945312 234.160156 138.492188 L 272.660156 31.933594 C 274.628906 26.480469 271.820312 20.46875 266.371094 18.496094 Z M 266.371094 18.496094 " fill-opacity="1" fill-rule="nonzero"/></g><path fill="#003399" d="M 218.886719 138.863281 L 225.660156 141.316406 L 190.660156 238.164062 L 183.890625 235.710938 Z M 218.886719 138.863281 " fill-opacity="1" fill-rule="nonzero"/></svg>